<?xml version="1.0" encoding="UTF-8"?><svg xmlns="http://www.w3.org/2000/svg" xmlns:xlink="http://www.w3.org/1999/xlink" viewBox="0 0 48 48" version="1.1"><g id="surface1"><path d="M42 23c0 10.492-8.508 19-19 19S4 33.492 4 23 12.508 4 23 4s19 8.508 19 19z" fill="#006064"/><path d="M30.2 38l1.902 1.7c4.296-2.4 7.597-6.302 9.097-11.098-.3-2-.8-4.403-1.3-6.903.5-2 .703-3.8.902-5.597-.5-1.301-1.102-2.5-1.903-3.602-1-1.5-2.199-2.8-3.5-3.898-.199 0-.5-.204-.699-.602-.3-.2-.597-.398-.898-.602-.102-.097-.301-.199-.403-.199C33 7 32.602 6.7 32.301 6.5c-.2-.102-.5-.2-.7-.398-.101-.102-.203-.102-.3-.204-.602-.296-1.2-.597-1.903-.796C27.2 4.398 25.2 4 23 4h-.3a.624.624 0 0 1-.598 0c-.704 0-1.403.102-2 .2-.704.1-1.301.198-2 .402C20.3 5.398 21.602 6 21.602 6 25.3 7.102 28.5 12.102 30.8 20.7c-.2.5-.403 1.1-.602 1.698C28.801 25.7 23.5 36.602 12 36.602H9.602c2.5 2.5 5.699 4.296 9.296 5.097 1.102-.097 1.5-.097.801.102.5.097 1 .199 1.602.199.597 0 1.097.102 1.699.102.5 0 1 0 1.398-.102 2.102-1.102 4-2.5 5.801-4z" fill="#004D40"/><path d="M9.2 26.398l-1.802-1.796-1.597-1-.102-3.301.403-2.5L7.8 15.398l2.398-2.699.2-1.398-1.2-.7L12.102 10l2.199 1-.7.8 2.5-.5 2.297.2L15.5 13l-.898.898.296 1.704 1 .199 1-1.7 1.403-.902 1.398.7.5 1.3-2.898 1.403 1 .699-3.102 1L13.602 20l-2.403 1.398-.097 1.704L9.5 20.898 7.5 21l-.602 2zM21.8 7.801L21 8.898l1.3 1.903-.3.898 1 1 2.602-2.3-.602-.7.102-1.097-1.5-1.102zm-7.1 27.3l.5 1.399 1.1 1.602c4.302-1 7.598-3.403 10.098-6.102l-3.796-.3-3-1.302L18.5 31l-.398-1.8-6.204-2.7-1.898.2.3 1.3-.698 3.102 1.699 1.5.898 1z" fill="#CDDC39"/><path d="M26.398 32l-2.597-.2a17.286 17.286 0 0 1-8.7 4.5l.098.2 1.102 1.602C20.6 37 24 34.602 26.398 32z" fill="#7CB342"/><path d="M36.7 24.898c1.6-4 2.198-8.5 2.1-12.5-1.402-2-3.1-3.796-5.1-5.097 1.198 3.5 1 9.398-1.598 15.699C30.602 26.602 24.8 38.5 12 38.5a19.39 19.39 0 0 0 7.7 3.2c7.698-2.4 13.5-8.2 17-16.802z" fill="#FFC107"/><path d="M45 33l-5 11-6.102-5.398-3.597-3.204 5.398-.898C32.2 10.2 26.2 5.2 22.102 4H23c2.102 0 4.102.3 5.898 1H29c7.3 4.102 10 21.7 10.7 27.102.1 1 .198 1.597.198 1.597z" fill="#FFC107"/><path d="M34.8 29c-.5.898-1 1.8-1.6 2.602-.4-2.704-.9-5.301-1.5-7.602.198-.3.3-.602.402-.898.296-.801.597-1.602.898-2.403.602 2.403 1.2 5.102 1.8 8.301zm3.802-11.898c-1-3.301-2.301-6.5-4-9.102l-.102-.102c-.3-.199-.5-.398-.8-.5.402 1.204.6 2.602.698 4.301 1.5 3.102 2.602 6.7 3.403 10.102.398-1.602.597-3.2.8-4.7z" fill="#FFA000"/></g><metadata><rdf:RDF xmlns:rdf="http://www.w3.org/1999/02/22-rdf-syntax-ns#" xmlns:rdfs="http://www.w3.org/2000/01/rdf-schema#" xmlns:dc="http://purl.org/dc/elements/1.1/"><rdf:Description about="https://iconscout.com/legal#licenses" dc:title="jdownloader" dc:description="jdownloader" dc:publisher="Iconscout" dc:date="2017-12-15" dc:format="image/svg+xml" dc:language="en"><dc:creator><rdf:Bag><rdf:li>Icons8</rdf:li></rdf:Bag></dc:creator></rdf:Description></rdf:RDF></metadata></svg>